<svg width="792" height="602" viewBox="0 0 792 602" fill="none" xmlns="http://www.w3.org/2000/svg">
<path d="M224.028 76.3872C217.84 117.35 241.096 185.794 253.498 214.895C253.498 235.23 273.145 280.834 282.968 301.095C277.219 364.999 291.072 361.139 271.548 397.608C325.519 421.204 347.702 424.658 406.373 423.026C433.995 422.394 449.543 421.714 478.942 411.607C463.372 385.551 460.948 370.45 466.786 342.721C481.889 330.564 472.68 319.882 478.942 322.829C483.952 325.186 495.028 314.97 499.94 309.567C515.559 298.369 521.428 241.787 522.41 214.895C558.879 178.426 565.142 94.8058 565.142 69.3881V38.8131C576.433 -43.8014 507.789 33.9898 506.57 38.8131C505.246 44.0583 465.926 103.401 443.947 130.538C411.898 113.224 351.854 132.748 343.749 130.538C337.266 128.77 292.914 71.5983 271.548 43.2336C271.548 43.2336 260.212 19.4783 247.236 17.8158C234.259 16.1532 230.918 21.9299 228.817 38.8131C229.799 32.7963 230.217 35.4241 224.028 76.3872Z" stroke="white"/>
<path d="M256.813 172.164L268.97 197.582" stroke="white"/>
<path d="M514.675 188.004C512.833 182.724 501.487 167.449 470.838 148.588C479.188 117.399 505.392 54.8004 543.408 53.9163" stroke="white" stroke-width="2"/>
<path d="M285.178 177.69C287.02 172.41 291.367 167.081 322.015 148.22C317.197 125.984 276.337 65.3359 249.446 53.548" stroke="white" stroke-width="2"/>
<path d="M540.829 144.168C540.461 150.184 538.84 162.66 535.303 164.428" stroke="white"/>
<path d="M401.584 297.411C401.83 293.113 400.626 284.53 393.848 284.518M393.848 284.518C387.879 284.507 380.188 284.29 376.535 284.518C371.135 289.686 370.958 292.514 376.535 297.411M393.848 284.518C404.645 284.537 410.687 283.994 421.476 284.518C424.203 285.917 425.468 286.987 427.002 289.675C428.191 295.585 427.532 297.754 421.476 297.411C415.097 297.334 411.928 297.618 410.425 301.463C410.172 302.396 410.103 303.52 410.425 309.199M376.535 297.411C381.98 299.386 384.789 301.365 389.428 306.252M376.535 297.411C379.854 296.442 381.881 296.481 385.744 297.411C390.817 300.42 390.497 302.493 389.428 306.252M389.428 306.252C391.699 311.621 394.553 313.315 401.584 314.724C406.219 314.084 408.107 312.813 410.425 309.199M410.425 309.199C413.127 302.447 415.856 300.387 421.476 297.779" stroke="white" stroke-width="2"/>
<path d="M420.371 345.299C407.189 350.82 398.14 350.253 380.218 345.299" stroke="white"/>
<path d="M401.584 316.566C405.954 335.038 412.701 340.539 432.159 341.984C450.988 342.904 456.39 340.457 460.892 333.143" stroke="white" stroke-width="2"/>
<path d="M401.216 315.83C396.846 334.302 390.099 339.802 370.641 341.247C351.812 342.168 346.41 339.721 341.908 332.406" stroke="white" stroke-width="2"/>
<path d="M475.259 294.096C480.111 324.296 476.895 334.919 463.102 345.299" stroke="white"/>
<path d="M312.806 318.777C309.108 313.304 308.67 310.634 310.964 306.62" stroke="white"/>
<path d="M496.256 189.846C496.256 189.846 521.662 214.22 511.728 206.054C501.793 197.889 496.317 193.79 487.783 192.793L493.309 200.529C496.062 208.092 497.048 212.313 494.414 219.684C493.345 226.883 491.754 230.529 482.258 234.419C472.124 235.26 466.287 236.065 459.05 230.735C451.972 222.136 452.325 215.897 453.525 204.581C446.82 212.231 445.185 217.532 443.947 227.788C447.894 233.325 449.903 235.793 453.525 240.313C448.654 236.379 445.871 233.868 440.632 227.788L442.473 214.527C445.762 203.158 449.103 197.8 459.05 190.951C472.217 183.22 480.573 184.103 496.256 189.846Z" stroke="white" stroke-width="2"/>
<path d="M484.836 245.102C494.616 238.947 501.855 228.525 508.412 222.263C514.97 216 505.8 236.667 508.412 230.367C505.138 236.878 502.784 240.197 496.993 245.102C490.965 247.6 488.217 247.767 484.836 245.102Z" stroke="white"/>
<path d="M280.021 212.317C287.662 202.834 291.582 198.248 303.228 190.951C314.31 187.18 320.904 187.397 333.435 192.425C340.642 198.46 344.866 201.645 347.802 212.317L352.59 228.157C352.701 234.472 350.581 237.174 343.381 240.681L349.275 234.419C348.744 222.11 346.346 216.306 341.171 206.423C339.859 221.379 338.627 228.387 333.435 232.577C327.412 239.5 322.02 240.509 310.228 239.208C301.633 236.781 297.397 234.863 293.282 228.157C289.848 219.506 290.106 214.781 291.809 206.423C291.914 207.287 272.38 221.799 280.021 212.317Z" stroke="white" stroke-width="2"/>
<path d="M285.915 227.052C282.152 223.959 280.39 222.96 280.021 227.052C279.652 231.143 289.599 242.892 289.599 242.892C296.002 247.514 297.482 247.387 298.808 245.47C295.275 242.781 293.328 241.279 291.44 238.84L285.915 227.052Z" stroke="white"/>
<path d="M438.421 214.527C438.144 205.978 439.294 201.307 447.262 193.53M355.906 216.369C351.827 214.527 351.635 212.297 353.327 207.159C351.255 197.774 349.246 195.663 345.223 193.53" stroke="white"/>
<path d="M90.6 532.6H100.4C91.9 550 74 562 53.3 562C24.5 562 1.1 538.6 1.1 509.7C1.1 480.9 24.5 457.5 53.3 457.5C65.2 457.5 76.2 461.5 85 468.2L76.9 477.5C65.5 463.4 49.8 456.5 36.2 461.3C17.1 468.1 9.3 495.2 18.8 522C28.2 548.7 51.4 564.9 70.5 558.1C80.8 554.5 87.8 544.9 90.6 532.6ZM136.784 509.7V509.8H136.684L136.784 509.7ZM144.184 458.3L178.684 561.9H163.584L155.884 538.9H106.284L95.2844 562.3L94.5844 562L105.584 538.4V538H105.784L134.984 475.9L129.084 458.3H144.184ZM106.684 538H155.584L135.384 477.1L106.684 538ZM212.127 458.2H245.827V459.1H212.127V561.8H197.027V459.1H163.027V458.2H197.027H212.127ZM290.057 458.2H323.757V459.1H290.057V561.8H274.957V459.1H240.957V458.2H274.957H290.057ZM364.14 457.5C393.04 457.5 416.44 480.9 416.44 509.7C416.44 538.6 393.04 562 364.14 562C335.34 562 311.94 538.6 311.94 509.7C311.94 480.9 335.34 457.5 364.14 457.5ZM381.34 558.1C400.34 551.4 408.14 524.2 398.74 497.5C389.24 470.8 366.14 454.6 347.04 461.3C327.94 468.1 320.14 495.2 329.64 522C339.04 548.7 362.24 564.9 381.34 558.1ZM493.376 458.6H494.276V561.9H493.376C493.376 561.8 493.376 561.6 493.376 561.5L493.076 562C493.376 561.8 423.176 460.7 423.176 460.1V562H422.576C422.576 562 422.576 459 422.576 458.7H421.776H438.776C438.476 458.9 477.576 515.1 493.376 538V458.6ZM519.514 561.8H504.414V458.2H519.514V561.8ZM615.209 532.6H625.009C616.509 550 598.609 562 577.909 562C549.109 562 525.709 538.6 525.709 509.7C525.709 480.9 549.109 457.5 577.909 457.5C589.809 457.5 600.809 461.5 609.609 468.2L601.509 477.5C590.109 463.4 574.409 456.5 560.809 461.3C541.709 468.1 533.909 495.2 543.409 522C552.809 548.7 576.009 564.9 595.109 558.1C605.409 554.5 612.409 544.9 615.209 532.6ZM661.394 509.7V509.8H661.294L661.394 509.7ZM668.794 458.3L703.294 561.9H688.194L680.494 538.9H630.894L619.894 562.3L619.194 562L630.194 538.4V538H630.394L659.594 475.9L653.694 458.3H668.794ZM631.294 538H680.194L659.994 477.1L631.294 538ZM722.151 561.2H791.351V562H707.051V561.9V458.4H722.151V561.2Z" fill="white"/>
</svg>
